# xmcd
# 
# Track frame offsets:
#     150
#     15312
#     31075
#     47782
#     59840
#     76605
#     91462
#     108262
#     120302
#     134440
# 
# Disc length: 2004
# 
# Revision: 0
# Processed by: cddbd v1.5.2PL0 Copyright (c) Steve Scherf et al.
# Submitted via: fre:ac v1.0.17
# 
DISCID=7307d20a
DTITLE=Various Artist - A Year in Your Life: 1980's Country, Vol. 1
DYEAR=2001
DGENRE=Country
TTITLE0=Alabama - Love in the First Degree
TTITLE1=Judds - Why Not Me
TTITLE2=Ronnie Milsap - Any Day Now
TTITLE3=Exile - I Could Get Used to You
TTITLE4=Shenandoah - Two Dozen Roses
TTITLE5=Jerry Reed - Ghe Got the Goldmine (I Got the Shaft)
TTITLE6=Keith Whitley - When You Say Nothing at All
TTITLE7=Oak Ridge Boys - Elvira
TTITLE8=Merle Haggard and Janie Fricke - Natural High
TTITLE9=Steve Wariner - Where Did I Go Wrong
EXTD=
EXTT0=
EXTT1=
EXTT2=
EXTT3=
EXTT4=
EXTT5=
EXTT6=
EXTT7=
EXTT8=
EXTT9=
PLAYORDER=
